<?xml version="1.0" encoding="utf-8"?>
<!-- Generator: Adobe Illustrator 16.0.0, SVG Export Plug-In . SVG Version: 6.00 Build 0)  -->
<!DOCTYPE svg PUBLIC "-//W3C//DTD SVG 1.1//EN" "http://www.w3.org/Graphics/SVG/1.1/DTD/svg11.dtd">
<svg version="1.1" id="Capa_1" xmlns="http://www.w3.org/2000/svg" xmlns:xlink="http://www.w3.org/1999/xlink" x="0px" y="0px"
	 width="237.434px" height="260px" viewBox="0 0 237.434 260" enable-background="new 0 0 237.434 260" xml:space="preserve">
<g>
	<g display="none">
		<defs>
			<rect id="SVGID_1_" x="-27.113" y="-31.904" width="317.639" height="348.836"/>
		</defs>
		<clipPath id="SVGID_2_" display="inline">
			<use xlink:href="#SVGID_1_"  overflow="visible"/>
		</clipPath>
		<g transform="matrix(1 0 0 1 1.907349e-06 1.907349e-06)" display="inline" clip-path="url(#SVGID_2_)">
			
				<image overflow="visible" width="1222" height="1342" xlink:href="DB8F5D34F4D14276.png"  transform="matrix(0.2599 0 0 0.2599 -27.1133 -31.9043)">
			</image>
		</g>
	</g>
	<g display="none">
		<defs>
			<rect id="SVGID_3_" x="223.282" y="-7.094" width="567.975" height="298.668"/>
		</defs>
		<clipPath id="SVGID_4_" display="inline">
			<use xlink:href="#SVGID_3_"  overflow="visible"/>
		</clipPath>
		<g transform="matrix(1 0 0 1 -1.525879e-05 4.768372e-07)" display="inline" clip-path="url(#SVGID_4_)">
			
				<image overflow="visible" width="2185" height="1149" xlink:href="DB8F5D34F4D1427A.png"  transform="matrix(0.2599 0 0 0.2599 223.2817 -7.0942)">
			</image>
		</g>
	</g>
	<g>
		<g>
			<g>
				
					<image overflow="visible" width="1171" height="1285" xlink:href="DB8F5D34F4D1427D.png"  transform="matrix(0.24 0 0 0.24 -21.9727 -23.8672)">
				</image>
			</g>
			<g>
				<path fill="#FFFFFF" d="M209.211,81.764c-13.975-24.148-36.517-41.409-63.479-48.604c-6.624-1.769-13.409-2.885-20.221-3.331
					c2.514-1.86,4.097-4.848,4.097-8.089c0-5.544-4.511-10.055-10.056-10.055c-5.547,0-10.057,4.511-10.057,10.055
					c0,3.189,1.534,6.133,3.979,8.001c-44.934,2.284-83.915,33.63-95.6,77.409c-7.193,26.956-3.458,55.099,10.515,79.247
					c13.979,24.151,36.521,41.413,63.479,48.603c2.124,0.569,4.303,1.075,6.506,1.514c-2.416,4.011-5.879,6.865-5.919,6.898
					l-4.551,3.691l5.835,0.513c1.91,0.167,3.903,0.25,5.924,0.25c0.003,0,0.003,0,0.005,0c32.15,0,67.334-20.974,69.39-22.215
					c25.25-13.86,43.243-36.814,50.668-64.636C226.919,134.056,223.186,105.911,209.211,81.764z"/>
			</g>
			<g>
				<g>
					<path fill="#63B6E6" d="M20.165,107.545c14.539-54.472,70.482-86.843,124.958-72.311
						c54.475,14.538,86.848,70.481,72.312,124.954c-14.54,54.473-70.481,86.844-124.957,72.307
						C38.004,217.957,5.627,162.016,20.165,107.545z"/>
					<path fill="#63B6E6" d="M167.875,223.38c0,0-40.518,24.602-73.928,21.658c0,0,15.023-12.162,6.416-23.241L167.875,223.38z"/>
				</g>
				<g>
					<path fill="#F6F6F6" d="M198.943,109.219h-0.935c-9.462-35.088-41.493-60.912-79.57-60.912
						c-38.078,0-70.109,25.824-79.573,60.912h-0.935c-7.262,0-13.15,5.651-13.15,12.616v17.788c0,6.967,5.889,12.612,13.15,12.612
						h0.935c9.464,35.089,41.495,60.915,79.573,60.915c38.077,0,70.108-25.826,79.57-60.915h0.935
						c7.262,0,13.151-5.646,13.151-12.612v-17.788C212.095,114.87,206.206,109.219,198.943,109.219z"/>
					<path fill="#111111" d="M118.439,213.824c-37.309,0-70.167-25.021-80.088-60.911h-0.42c-7.624,0-13.824-5.96-13.824-13.29
						v-17.788c0-7.328,6.201-13.29,13.824-13.29h0.42c9.921-35.893,42.779-60.912,80.088-60.912
						c37.308,0,70.165,25.02,80.084,60.912h0.42c7.621,0,13.826,5.962,13.826,13.29v17.788c0,7.33-6.205,13.29-13.826,13.29h-0.42
						C188.604,188.803,155.747,213.824,118.439,213.824z M37.931,109.893c-6.878,0-12.476,5.359-12.476,11.942v17.788
						c0,6.583,5.598,11.942,12.476,11.942h1.452l0.134,0.498c9.596,35.569,42.047,60.412,78.921,60.412
						c36.872,0,69.327-24.843,78.919-60.412l0.138-0.498h1.447c6.881,0,12.477-5.359,12.477-11.942v-17.788
						c0-6.583-5.595-11.942-12.477-11.942h-1.447l-0.138-0.498c-9.592-35.571-42.048-60.415-78.919-60.415
						c-36.875,0-69.326,24.844-78.921,60.415l-0.134,0.498H37.931z"/>
				</g>
				<g>
					<path fill="#051218" d="M133.88,50.544c-1-6.34-5.953-11.32-12.199-12.258v-9.379c3.206-0.924,5.558-3.876,5.558-7.383
						c0-4.243-3.444-7.682-7.688-7.682c-4.245,0-7.687,3.438-7.687,7.682c0,3.507,2.348,6.454,5.553,7.383v9.379
						c-6.247,0.939-11.202,5.918-12.208,12.258h-0.007c1.708,2.452,7.477,4.259,14.349,4.259c6.875,0,12.645-1.807,14.352-4.259
						H133.88z"/>
					<path fill="#FFFFFF" d="M117.277,19.307c-0.607,1.164-1.767,1.762-2.596,1.329c-0.823-0.431-1.002-1.725-0.395-2.89
						c0.607-1.167,1.773-1.763,2.598-1.332C117.712,16.848,117.886,18.14,117.277,19.307z"/>
				</g>
				<path fill="#DADADA" d="M171.17,89.743c0,0-35.679-48.537,1.825-15.966c13.177,11.444,21.151,35.729,21.151,35.729
					s-0.21,0.159-0.129,0.469c2.965,11.473,2.359,30.196,0.129,41.029c0,0-6.417,25.684-27.732,41.463
					c-21.31,15.78-12.16-1.399-4.67-11.66C197.186,132.251,171.17,110.796,171.17,89.743z"/>
				<path fill="#63B6E6" d="M190.063,131.528c0,27.353-22.282,49.526-49.771,49.526H99.4c-27.485,0-49.77-22.174-49.77-49.526
					v-9.591c0-27.354,22.284-49.529,49.77-49.529h40.892c27.489,0,49.771,22.175,49.771,49.529V131.528z"/>
				<g>
					<path fill="#062029" d="M190.063,132.535c0,26.797-20.933,44.677-54.466,51.711l-33.926-3.191
						c-26.798,0-48.523-21.723-48.523-48.52v-9.395c0-26.796,21.725-48.519,48.523-48.519h39.871
						c26.794,0,48.521,21.723,48.521,48.519V132.535z"/>
					<path fill="#062029" d="M95.806,176.269c5.264,1.871-1.859,9.202-1.859,9.202l-8.724,9.596c0,0,40.321-5.643,59.403-14.218
						C144.626,180.849,90.543,174.393,95.806,176.269z"/>
				</g>
				<path fill="#FFFFFF" d="M97.788,53.029c0,0,2.107,4.555,10.578,3.945c-2.132,1.038-42.719,1.85-65.641,53.97
					C42.726,110.944,48.642,71.777,97.788,53.029z"/>
				<g>
					<g>
						<path fill="#FFFFFF" d="M107.318,131.107c0,11.702-8.877,21.189-19.822,21.189l0,0c-10.949,0-19.825-9.487-19.825-21.189
							v-6.749c0-11.698,8.875-21.183,19.825-21.183l0,0c10.945,0,19.822,9.484,19.822,21.183V131.107z"/>
					</g>
					<g>
						<path fill-rule="evenodd" clip-rule="evenodd" fill="#0D70B8" d="M102.782,128.305c0,8.443-6.847,15.288-15.291,15.288
							c-8.441,0-15.285-6.845-15.285-15.288c0-8.442,6.843-15.285,15.285-15.285C95.935,113.02,102.782,119.862,102.782,128.305z"/>
						<path fill-rule="evenodd" clip-rule="evenodd" fill="#122C34" d="M96.666,128.305c0,5.065-4.104,9.171-9.175,9.171
							c-5.062,0-9.169-4.105-9.169-9.171c0-5.063,4.107-9.172,9.169-9.172C92.562,119.133,96.666,123.241,96.666,128.305z"/>
						<path fill-rule="evenodd" clip-rule="evenodd" fill="#FFFFFF" d="M93.029,125.011c0.973,1.777,0.65,3.823-0.725,4.579
							c-1.373,0.755-3.272-0.072-4.25-1.846c-0.972-1.774-0.647-3.82,0.722-4.578C90.153,122.417,92.052,123.241,93.029,125.011z"/>
						<path fill="#FFFFFF" d="M91.399,124.315c2.655,3.905,7.011,5.577,9.722,3.729c0.656-0.449,1.161-1.067,1.501-1.793
							c-0.811-5.979-5.035-10.869-10.642-12.639c-0.169,0.087-0.334,0.183-0.496,0.289
							C88.777,115.744,88.736,120.411,91.399,124.315z"/>
					</g>
				</g>
				<g>
					<g>
						<path fill="#FFFFFF" d="M175.241,131.107c0,11.702-8.875,21.189-19.819,21.189l0,0c-10.951,0-19.825-9.487-19.825-21.189
							v-6.749c0-11.698,8.874-21.183,19.825-21.183l0,0c10.944,0,19.819,9.484,19.819,21.183V131.107z"/>
					</g>
					<g>
						<path fill-rule="evenodd" clip-rule="evenodd" fill="#0D70B8" d="M170.71,128.305c0,8.443-6.854,15.288-15.292,15.288
							c-8.442,0-15.288-6.845-15.288-15.288c0-8.442,6.846-15.285,15.288-15.285C163.856,113.02,170.71,119.862,170.71,128.305z"/>
						<path fill-rule="evenodd" clip-rule="evenodd" fill="#122C34" d="M164.587,128.305c0,5.065-4.1,9.171-9.17,9.171
							c-5.064,0-9.171-4.105-9.171-9.171c0-5.063,4.107-9.172,9.171-9.172C160.487,119.133,164.587,123.241,164.587,128.305z"/>
						<path fill-rule="evenodd" clip-rule="evenodd" fill="#FFFFFF" d="M160.955,125.011c0.972,1.777,0.647,3.823-0.726,4.579
							c-1.372,0.755-3.274-0.072-4.251-1.846c-0.97-1.774-0.645-3.82,0.724-4.578C158.075,122.417,159.976,123.241,160.955,125.011z
							"/>
						<path fill="#FFFFFF" d="M159.323,124.315c2.655,3.905,7.011,5.577,9.723,3.729c0.655-0.449,1.158-1.067,1.501-1.793
							c-0.811-5.979-5.035-10.869-10.645-12.639c-0.167,0.087-0.331,0.183-0.491,0.289
							C156.701,115.744,156.661,120.411,159.323,124.315z"/>
					</g>
				</g>
			</g>
		</g>
	</g>
</g>
</svg>
